<svg version="1.1" id="Layer_1" xmlns="http://www.w3.org/2000/svg" xmlns:xlink="http://www.w3.org/1999/xlink" x="0px" y="0px"
	 width="100%" viewBox="0 0 368 368" enable-background="new 0 0 368 368" xml:space="preserve">
<path fill="#FEFEFE" opacity="1.000000" stroke="none" 
	d="
M179.000000,369.000000 
	C119.353432,369.000000 60.206856,369.000000 1.030142,369.000000 
	C1.030142,246.395096 1.030142,123.790184 1.030142,1.092633 
	C123.563194,1.092633 246.126480,1.092633 368.844879,1.092633 
	C368.844879,123.666512 368.844879,246.333237 368.844879,369.000000 
	C305.790253,369.000000 242.645126,369.000000 179.000000,369.000000 
M148.499969,279.165070 
	C219.699509,279.165070 290.899048,279.165070 362.098572,279.165070 
	C362.165283,278.864380 362.231995,278.563690 362.298676,278.263000 
	C343.204407,267.088074 324.110107,255.913162 304.576782,244.481293 
	C324.611969,232.758865 344.067444,221.375626 363.642700,209.922318 
	C342.894836,176.294769 322.494629,143.230698 302.043884,110.084694 
	C281.265228,121.195869 261.093597,131.982452 240.169739,143.171280 
	C240.169739,123.079231 240.169739,103.865555 240.169739,84.422668 
	C201.456787,84.422668 163.242996,84.422668 124.469055,84.422668 
	C124.469055,104.095268 124.469055,123.487480 124.469055,143.939560 
	C105.515923,132.140167 87.436852,120.884911 69.120255,109.481789 
	C50.374138,143.269989 31.939825,176.496185 13.377153,209.953735 
	C33.231335,221.570923 52.581890,232.893402 72.409790,244.495209 
	C53.155602,255.920532 34.370342,267.067596 15.585084,278.214661 
	C15.671997,278.531464 15.758909,278.848267 15.845821,279.165070 
	C59.730526,279.165070 103.615234,279.165070 148.499969,279.165070 
z"/>
<path fill="#343434" opacity="1.000000" stroke="none" 
	d="
M147.999954,279.165070 
	C103.615234,279.165070 59.730526,279.165070 15.845821,279.165070 
	C15.758909,278.848267 15.671997,278.531464 15.585084,278.214661 
	C34.370342,267.067596 53.155602,255.920532 72.409790,244.495209 
	C52.581890,232.893402 33.231335,221.570923 13.377153,209.953735 
	C31.939825,176.496185 50.374138,143.269989 69.120255,109.481789 
	C87.436852,120.884911 105.515923,132.140167 124.469055,143.939560 
	C124.469055,123.487480 124.469055,104.095268 124.469055,84.422668 
	C163.242996,84.422668 201.456787,84.422668 240.169739,84.422668 
	C240.169739,103.865555 240.169739,123.079231 240.169739,143.171280 
	C261.093597,131.982452 281.265228,121.195869 302.043884,110.084694 
	C322.494629,143.230698 342.894836,176.294769 363.642700,209.922318 
	C344.067444,221.375626 324.611969,232.758865 304.576782,244.481293 
	C324.110107,255.913162 343.204407,267.088074 362.298676,278.263000 
	C362.231995,278.563690 362.165283,278.864380 362.098572,279.165070 
	C290.899048,279.165070 219.699509,279.165070 147.999954,279.165070 
M220.879745,223.692230 
	C220.427658,232.167313 223.972839,238.626495 231.262878,242.705612 
	C237.856354,246.394958 244.737839,246.052872 251.189301,242.157349 
	C259.367584,237.219131 262.710541,227.842712 259.831573,218.783600 
	C257.074432,210.107773 248.138596,204.226959 238.963074,205.049728 
	C229.632309,205.886398 222.613495,212.801392 220.879745,223.692230 
M142.794525,241.440643 
	C143.905228,240.441666 145.113571,239.531052 146.110626,238.429230 
	C152.078400,231.834534 152.886826,221.928848 148.128693,214.433456 
	C143.405319,206.992828 134.554596,203.364868 126.585709,205.691574 
	C118.346413,208.097244 113.043243,213.534210 111.486267,221.932236 
	C109.986115,230.023727 113.085373,236.796280 119.724228,241.456192 
	C126.934525,246.517197 134.611374,246.422287 142.794525,241.440643 
z"/>
<path fill="#FBFBFB" opacity="1.000000" stroke="none" 
	d="
M220.904144,223.254883 
	C222.613495,212.801392 229.632309,205.886398 238.963074,205.049728 
	C248.138596,204.226959 257.074432,210.107773 259.831573,218.783600 
	C262.710541,227.842712 259.367584,237.219131 251.189301,242.157349 
	C244.737839,246.052872 237.856354,246.394958 231.262878,242.705612 
	C223.972839,238.626495 220.427658,232.167313 220.904144,223.254883 
z"/>
<path fill="#FBFBFB" opacity="1.000000" stroke="none" 
	d="
M142.489365,241.651413 
	C134.611374,246.422287 126.934525,246.517197 119.724228,241.456192 
	C113.085373,236.796280 109.986115,230.023727 111.486267,221.932236 
	C113.043243,213.534210 118.346413,208.097244 126.585709,205.691574 
	C134.554596,203.364868 143.405319,206.992828 148.128693,214.433456 
	C152.886826,221.928848 152.078400,231.834534 146.110626,238.429230 
	C145.113571,239.531052 143.905228,240.441666 142.489365,241.651413 
z"/>
</svg>